PathFileType	4	(X/Y/Z)	Walk4.trc
DataRate	CameraRate	NumFrames	NumMarkers	Units	OrigDataRate	OrigDataStartFrame	OrigNumFrames
200.000000	200.000000	9	58	mm	200.000000	291	454
Frame#	Times		LFHD		RFHD		RBHD		C7		CLAV		STRN		RBack		RASI		LPSI		RACR1		RUA1		RElbow		RFA1		RWRR		RCAR		LACR1		LUA1		LElbow		LFA1		LWRR		LWRU		LCAR		RTH1		RTH3		RTH2		RTH4		RLFC		RTB1		RTB3		RTB2		RTB4		RLMAL		RMMAL		RCAL		RMT1		RMT5		RToe		LTH1		LTH3		LTH2		LTH4		LLFC		LTB1		LTB3		LTB2		LTB4		LLMAL		LMT5		LToe		RWRU		LBHD		T10		LMMAL		RPSI		LASI		LElbowM		LMT1		LCAL
			X1	Y1	Z1	X2	Y2	Z2	X3	Y3	Z3	X4	Y4	Z4	X5	Y5	Z5	X6	Y6	Z6	X7	Y7	Z7	X8	Y8	Z8	X9	Y9	Z9	X10	Y10	Z10	X11	Y11	Z11	X12	Y12	Z12	X13	Y13	Z13	X14	Y14	Z14	X15	Y15	Z15	X16	Y16	Z16	X17	Y17	Z17	X18	Y18	Z18	X19	Y19	Z19	X20	Y20	Z20	X21	Y21	Z21	X22	Y22	Z22	X23	Y23	Z23	X24	Y24	Z24	X25	Y25	Z25	X26	Y26	Z26	X27	Y27	Z27	X28	Y28	Z28	X29	Y29	Z29	X30	Y30	Z30	X31	Y31	Z31	X32	Y32	Z32	X33	Y33	Z33	X34	Y34	Z34	X35	Y35	Z35	X36	Y36	Z36	X37	Y37	Z37	X38	Y38	Z38	X39	Y39	Z39	X40	Y40	Z40	X41	Y41	Z41	X42	Y42	Z42	X43	Y43	Z43	X44	Y44	Z44	X45	Y45	Z45	X46	Y46	Z46	X47	Y47	Z47	X48	Y48	Z48	X49	Y49	Z49	X50	Y50	Z50	X51	Y51	Z51	X52	Y52	Z52	X53	Y53	Z53	X54	Y54	Z54	X55	Y55	Z55	X56	Y56	Z56	X57	Y57	Z57	X58	Y58	Z58

291	1.455	233.01	1602.8	-30.204	248.78	1599	63.317	98.522	1551.5	103.13	51.985	1418.6	28.153	195.01	1347	19.804	257.99	1245.4	26.131	3.3957	1318.3	130.54	248.45	989.81	176.91	5.4721	960.5	-15.553	126.36	1378.3	176.7	111.27	1197.2	273.51	62.476	1076.1	300.89	89.523	931.14	320.59	188.13	847.29	291.97	200.72	798.94	345.36	128.52	1383.3	-133.87	132.23	1200.1	-225.44	108.95	1072.1	-249.97	130.1	934.69	-259.57	201.53	834.87	-201.96	165.13	823.51	-263.1	225.05	786.41	-237.6	184.17	750.61	244.97	180.9	584.77	196.89	237.2	672.96	200.73	180.74	666.89	218.96	175.79	497.84	170.59	206.73	341.71	92.689	183.2	170.69	87.836	173.79	257.63	145.95	195.24	255.17	86.757	134.27	60.131	109.17	149.18	68.918	27.257	71.044	27.68	72.593	250.03	33.642	50.935	218.01	25.439	128.21	317.87	28.564	80.834	173.33	748.3	-184.12	221.3	590.36	-141.75	252.33	690.79	-152.78	197.12	671.08	-157.2	248.85	477.76	-120.06	216.13	332.49	-56.174	78.96	227.39	-63.617	129.6	303.28	-111.71	146.2	279.89	-57.801	-30.376	183.82	-88.324	-5.0131	87.337	-97.727	69.211	30.401	-65.784	130.07	829.13	331.03	80.629	1550.1	-38.12	-8.2769	1149.6	19.901	-12.333	170.39	-5.4922	5.0106	970.89	73.542	249.7	963.69	-113.12	69.426	1046.4	-180.22	26.973	72.728	-29.536	-92.284	205.18	-45.668
292	1.46	238.45	1603.1	-29.915	254.17	1599.2	63.608	103.92	1551.6	103.31	57.471	1419	28.408	200.47	1347.1	19.801	263.3	1245.4	25.748	8.9007	1318.7	130.92	253.43	989.82	177.19	10.439	960.95	-15.201	132.02	1378.7	176.81	117.18	1197.8	273.92	69	1076.5	301.56	97.077	931.79	321.37	196.32	848.66	292.55	209.43	800.61	346.08	133.72	1383.5	-133.76	136.44	1200.2	-225.2	112.27	1072.3	-249.61	131.93	934.81	-259.63	202.51	834.04	-202.62	165.73	823.31	-263.65	225.32	785.36	-238.52	188.23	750.42	244.92	183.56	584.72	196.69	240.51	672.47	200.37	184.07	666.82	218.77	177.33	497.82	170.57	207.39	341.66	92.885	183.43	170.68	87.924	174.1	257.64	146.04	195.68	255.13	86.903	134.29	60.201	109.13	149.25	68.961	27.231	71.044	27.76	72.572	250.06	33.634	50.951	218	25.425	128.22	317.85	28.597	80.892	178.69	748.45	-183.7	229.46	591.36	-141.23	258.88	692.26	-153.06	203.94	671.65	-156.76	258.53	479.23	-119.43	228.12	333.56	-55.433	92.933	225.94	-63.031	142.23	302.68	-111.12	159.19	279.71	-57.146	-15.455	180.26	-87.887	13.139	85.315	-97.988	89.239	30.737	-66.135	138.46	830.09	331.74	86.103	1550.3	-37.941	-3.0977	1150	20.467	2.7318	167.17	-5.0628	10.081	971.24	73.853	254.83	964.34	-112.86	72.704	1046.9	-179.83	45.399	71.17	-29.801	-78.363	199.62	-45.359
293	1.465	243.89	1603.4	-29.641	259.55	1599.4	63.886	109.31	1551.7	103.47	62.953	1419.3	28.661	205.91	1347.2	19.786	268.6	1245.4	25.352	14.424	1319.2	131.32	258.41	989.84	177.47	15.404	961.35	-14.897	137.7	1379	176.9	123.08	1198.3	274.33	75.495	1077	302.2	104.6	932.43	322.11	204.47	850.01	293.12	218.08	802.25	346.77	138.9	1383.7	-133.66	140.66	1200.2	-224.97	115.57	1072.5	-249.27	133.76	934.93	-259.7	203.52	833.24	-203.34	166.34	823.13	-264.22	225.62	784.37	-239.49	192.3	750.21	244.85	186.17	584.67	196.48	243.79	671.95	199.98	187.4	666.73	218.57	178.81	497.82	170.56	208.05	341.61	93.127	183.65	170.69	88.038	174.37	257.66	146.16	196.11	255.1	87.086	134.31	60.276	109.1	149.32	69.009	27.2	71.045	27.844	72.551	250.1	33.626	50.972	217.99	25.411	128.24	317.84	28.63	80.954	184.09	748.57	-183.3	237.55	592.36	-140.69	265.41	693.68	-153.31	210.75	672.2	-156.32	268.07	480.69	-118.76	240.08	334.59	-54.674	107.04	224.37	-62.434	154.9	301.97	-110.54	172.23	279.45	-56.476	-0.30587	176.47	-87.476	31.527	83.164	-98.189	109.42	31.078	-66.317	146.81	831.04	332.41	91.576	1550.5	-37.777	2.0765	1150.4	21.03	17.996	163.76	-4.6434	15.137	971.54	74.116	259.97	964.97	-112.59	76.019	1047.4	-179.42	63.999	69.544	-29.974	-64.172	193.76	-45.11
294	1.47	249.33	1603.6	-29.382	264.93	1599.6	64.149	114.71	1551.8	103.61	68.428	1419.6	28.913	211.34	1347.3	19.76	273.88	1245.4	24.948	19.967	1319.6	131.72	263.38	989.85	177.73	20.369	961.7	-14.643	143.4	1379.4	176.99	128.96	1198.8	274.74	81.961	1077.4	302.82	112.09	933.04	322.82	212.6	851.35	293.67	226.68	803.86	347.44	144.06	1383.8	-133.57	144.86	1200.3	-224.74	118.84	1072.7	-248.94	135.59	935.05	-259.8	204.58	832.47	-204.09	166.96	822.97	-264.81	225.95	783.43	-240.51	196.41	750	244.76	188.72	584.62	196.28	247.04	671.41	199.58	190.71	666.64	218.38	180.23	497.81	170.57	208.72	341.56	93.406	183.86	170.69	88.173	174.61	257.68	146.29	196.53	255.07	87.302	134.32	60.357	109.07	149.41	69.06	27.166	71.049	27.932	72.529	250.13	33.619	50.998	217.98	25.396	128.26	317.83	28.662	81.018	189.53	748.67	-182.93	245.56	593.35	-140.13	271.91	695.05	-153.53	217.54	672.74	-155.89	277.48	482.14	-118.06	251.99	335.6	-53.896	121.28	222.69	-61.829	167.62	301.16	-109.95	185.31	279.11	-55.795	15.073	172.48	-87.093	50.133	80.899	-98.332	129.73	31.421	-66.343	155.12	831.96	333.05	97.048	1550.6	-37.627	7.2469	1150.7	21.589	33.462	160.18	-4.2382	20.179	971.79	74.331	265.13	965.55	-112.31	79.374	1047.8	-178.99	82.761	67.861	-30.064	-49.7	187.63	-44.919
295	1.475	254.77	1603.8	-29.137	270.31	1599.7	64.398	120.09	1551.8	103.73	73.897	1419.8	29.164	216.75	1347.4	19.725	279.15	1245.4	24.541	25.529	1320	132.14	268.34	989.86	177.98	25.335	962.01	-14.44	149.12	1379.6	177.06	134.84	1199.3	275.14	88.397	1077.8	303.42	119.55	933.61	323.5	220.69	852.66	294.21	235.23	805.44	348.09	149.21	1383.9	-133.48	149.06	1200.2	-224.53	122.08	1072.8	-248.62	137.42	935.18	-259.91	205.67	831.72	-204.88	167.6	822.83	-265.41	226.32	782.54	-241.57	200.54	749.76	244.67	191.22	584.57	196.08	250.26	670.83	199.17	194.01	666.54	218.19	181.6	497.82	170.59	209.4	341.51	93.714	184.07	170.7	88.326	174.82	257.7	146.44	196.96	255.03	87.545	134.34	60.443	109.03	149.5	69.115	27.127	71.056	28.028	72.507	250.17	33.613	51.028	217.97	25.382	128.28	317.82	28.692	81.084	195.02	748.75	-182.58	253.49	594.33	-139.55	278.38	696.37	-153.72	224.3	673.27	-155.46	286.75	483.57	-117.32	263.85	336.58	-53.102	135.65	220.89	-61.221	180.38	300.25	-109.35	198.42	278.71	-55.105	30.682	168.29	-86.74	68.937	78.532	-98.423	150.14	31.765	-66.23	163.4	832.86	333.66	102.52	1550.8	-37.492	12.415	1151	22.144	49.131	156.45	-3.8511	25.206	972	74.496	270.31	966.09	-112.03	82.775	1048.2	-178.54	101.68	66.133	-30.079	-34.935	181.26	-44.785
296	1.48	260.2	1604	-28.908	275.69	1599.9	64.631	125.48	1551.8	103.83	79.359	1420	29.413	222.14	1347.4	19.682	284.41	1245.4	24.135	31.11	1320.3	132.58	273.29	989.85	178.22	30.302	962.26	-14.287	154.86	1379.9	177.13	140.71	1199.7	275.53	94.804	1078.1	303.99	126.97	934.16	324.15	228.75	853.94	294.72	243.73	806.98	348.7	154.35	1384	-133.4	153.25	1200.2	-224.32	125.3	1072.9	-248.31	139.25	935.3	-260.03	206.82	830.98	-205.71	168.27	822.7	-266.03	226.72	781.69	-242.68	204.69	749.52	244.57	193.66	584.52	195.9	253.46	670.22	198.76	197.3	666.43	218.02	182.92	497.83	170.64	210.09	341.46	94.039	184.27	170.71	88.49	175.02	257.73	146.6	197.39	255	87.807	134.36	60.534	108.99	149.61	69.172	27.081	71.069	28.132	72.483	250.2	33.609	51.061	217.95	25.368	128.3	317.82	28.719	81.152	200.55	748.82	-182.26	261.33	595.3	-138.96	284.81	697.63	-153.88	231.03	673.79	-155.04	295.86	484.97	-116.54	275.65	337.52	-52.293	150.15	219.01	-60.611	193.18	299.24	-108.77	211.56	278.24	-54.409	46.519	163.94	-86.419	87.923	76.079	-98.469	170.62	32.107	-66	171.63	833.73	334.24	107.99	1550.8	-37.37	17.582	1151.2	22.694	65.006	152.59	-3.4857	30.22	972.15	74.611	275.49	966.56	-111.74	86.224	1048.5	-178.06	120.73	64.371	-30.032	-19.868	174.68	-44.702
297	1.485	265.63	1604.1	-28.694	281.06	1599.9	64.848	130.86	1551.8	103.92	84.815	1420.2	29.658	227.51	1347.4	19.632	289.65	1245.3	23.736	36.71	1320.6	133.03	278.24	989.82	178.43	35.273	962.46	-14.184	160.6	1380.1	177.18	146.58	1200.1	275.92	101.18	1078.4	304.55	134.35	934.66	324.77	236.78	855.2	295.22	252.17	808.48	349.29	159.47	1384	-133.33	157.42	1200.1	-224.14	128.5	1073.1	-248.01	141.1	935.43	-260.17	208.01	830.27	-206.58	168.96	822.58	-266.66	227.16	780.88	-243.82	208.86	749.27	244.47	196.05	584.47	195.74	256.62	669.57	198.38	200.58	666.32	217.86	184.21	497.85	170.7	210.79	341.4	94.371	184.49	170.72	88.66	175.23	257.76	146.76	197.83	254.97	88.079	134.39	60.628	108.95	149.72	69.23	27.027	71.088	28.248	72.458	250.24	33.605	51.097	217.94	25.355	128.32	317.81	28.742	81.222	206.12	748.88	-181.96	269.06	596.25	-138.35	291.2	698.84	-154	237.7	674.3	-154.62	304.8	486.33	-115.74	287.37	338.44	-51.47	164.77	217.04	-60.004	206.03	298.15	-108.18	224.72	277.71	-53.708	62.586	159.44	-86.13	107.07	73.554	-98.477	191.17	32.447	-65.676	179.81	834.56	334.78	113.46	1550.9	-37.262	22.749	1151.4	23.238	81.091	148.61	-3.1448	35.218	972.26	74.677	280.67	966.97	-111.45	89.722	1048.8	-177.56	139.93	62.586	-29.934	-4.49	167.94	-44.664
298	1.49	271.06	1604.2	-28.495	286.44	1599.9	65.049	136.24	1551.7	104	90.264	1420.3	29.898	232.87	1347.3	19.576	294.89	1245.2	23.347	42.326	1320.9	133.49	283.19	989.77	178.64	40.247	962.62	-14.13	166.35	1380.2	177.22	152.45	1200.4	276.29	107.54	1078.6	305.08	141.7	935.13	325.35	244.77	856.43	295.69	260.55	809.94	349.85	164.57	1384	-133.26	161.58	1200	-223.97	131.68	1073.1	-247.72	142.95	935.55	-260.31	209.26	829.58	-207.47	169.68	822.48	-267.3	227.64	780.11	-244.99	213.04	748.99	244.37	198.38	584.43	195.59	259.75	668.88	198.02	203.83	666.2	217.72	185.47	497.87	170.77	211.51	341.34	94.699	184.71	170.74	88.83	175.44	257.79	146.92	198.28	254.94	88.351	134.42	60.726	108.9	149.84	69.29	26.966	71.113	28.376	72.43	250.28	33.602	51.135	217.92	25.343	128.35	317.81	28.762	81.293	211.73	748.93	-181.7	276.68	597.19	-137.73	297.55	699.98	-154.09	244.32	674.8	-154.21	313.58	487.66	-114.93	299.02	339.34	-50.635	179.51	215	-59.402	218.92	296.98	-107.6	237.9	277.13	-53.007	78.878	154.83	-85.872	126.38	70.972	-98.457	211.76	32.786	-65.287	187.96	835.36	335.3	118.92	1550.9	-37.167	27.917	1151.6	23.775	97.388	144.53	-2.831	40.203	972.31	74.696	285.85	967.3	-111.16	93.269	1049.1	-177.04	159.25	60.792	-29.801	11.203	161.05	-44.664
299	1.495	276.48	1604.3	-28.312	291.81	1599.9	65.232	141.63	1551.5	104.06	95.705	1420.3	30.131	238.22	1347.2	19.515	300.12	1245.1	22.974	47.957	1321.1	133.96	288.13	989.69	178.82	45.226	962.72	-14.122	172.11	1380.3	177.25	158.34	1200.7	276.65	113.87	1078.9	305.6	149.02	935.56	325.91	252.73	857.62	296.14	268.87	811.34	350.39	169.67	1383.9	-133.21	165.72	1199.9	-223.82	134.84	1073.2	-247.45	144.82	935.66	-260.47	210.56	828.9	-208.4	170.44	822.39	-267.94	228.17	779.37	-246.19	217.22	748.71	244.27	200.65	584.39	195.46	262.86	668.15	197.69	207.06	666.06	217.6	186.71	497.89	170.86	212.24	341.28	95.012	184.94	170.75	88.993	175.68	257.82	147.07	198.74	254.91	88.615	134.45	60.826	108.85	149.97	69.349	26.896	71.145	28.519	72.401	250.32	33.601	51.176	217.91	25.332	128.37	317.81	28.778	81.366	217.37	748.98	-181.46	284.19	598.1	-137.11	303.86	701.07	-154.14	250.88	675.29	-153.8	322.18	488.95	-114.09	310.57	340.21	-49.79	194.36	212.91	-58.808	231.84	295.75	-107.03	251.08	276.51	-52.307	95.394	150.12	-85.645	145.81	68.352	-98.419	232.38	33.128	-64.86	196.05	836.12	335.77	124.38	1550.8	-37.085	33.088	1151.7	24.303	113.9	140.38	-2.5462	45.173	972.32	74.668	291.02	967.56	-110.87	96.863	1049.4	-176.51	178.7	59.002	-29.645	27.216	154.06	-44.693
